# xmcd CD database file
#
# Track frame offsets:
#	150
#	20699
#	37566
#	55000
#	73036
#	92420
#	107976
#	125256
#	138751
#	153273
#	170521
#	188068
#	207437
#	224196
#	242853
#	260081
#
# Disc length: 3719 seconds
#
# Revision: 1
# Processed by: cddbd v1.5.2PL0 Copyright (c) Steve Scherf et al.
# Submitted via: Feurio! 1.68 - http://www.feurio.com
#
DISCID=e30e8510
DTITLE=Zlatne Zice Slavonije - Vecer Pjesme I Vina
DYEAR=1900
DGENRE=blues
TTITLE0=Denis Dumancic I Prva Liga - Usporite Savu
TTITLE1=Alen Nizetic - Tamo Di Je Domovina
TTITLE2=Jasmin Stavros - Blago Meni, Blago Tebi
TTITLE3=Slavonia Band - Zlatna Polja
TTITLE4=Et - Svirajte Mi Tuzne
TTITLE5=Gazde - Ne Znam Broj
TTITLE6=Niko Bete - Sve Se Grane Povile
TTITLE7=Bekrije - Sto Je Lijepo Neka Traje
TTITLE8=Antonia Sola and Dyco - Usne Lazljive
TTITLE9=Robert - Srce Zauvijek Ti Pripada
TTITLE10=Anamarija Culjak - Nemoj Me Budit
TTITLE11=Tomislav Bralic and Klapa Intrede -  Snaga Slavonije
TTITLE12=Zdravko Skender - Kunem Se Svima
TTITLE13=Katarina Grujo - Bez Njega Mi Srece Nema
TTITLE14=Ixes - Mogu Te Slagat
TTITLE15=100 Posto - Lijepo Ti Stoji Laz Na Usnama
EXTD=
EXTT0=
EXTT1=
EXTT2=
EXTT3=
EXTT4=
EXTT5=
EXTT6=
EXTT7=
EXTT8=
EXTT9=
EXTT10=
EXTT11=
EXTT12=
EXTT13=
EXTT14=
EXTT15=
PLAYORDER=
